{
  "asset": {
    "version": "2.0",
    "generator": "THREE.GLTFExporter"
  },
  "scenes": [
    {
      "nodes": [
        2,
        4
      ]
    }
  ],
  "scene": 0,
  "nodes": [
    {
      "extras": {
        "properties": [
          "8",
          "-60,803913396",
          "-31,675075862",
          "-60,78081938523241",
          "-31,695075862",
          "082",
          "1",
          "total",
          "3301301",
          "2227119",
          "12222",
          "635793",
          "149628",
          "486165",
          "13583",
          "5068",
          "8515",
          "918323",
          "362041",
          "556282",
          "22969",
          "5981",
          "16988",
          "299712",
          "73962",
          "225750",
          "255324",
          "100980",
          "154344",
          "50931",
          "7057",
          "43874",
          "18262"
        ],
        "layerId": 0,
        "featureIdx": 0
      },
      "mesh": 0
    },
    {
      "extras": {
        "properties": [
          "15",
          "-60,78659288792431",
          "-31,665075862",
          "-60,76349887715672",
          "-31,685075861999998",
          "082",
          "0",
          "total",
          "3301301",
          "2227119",
          "12222",
          "635793",
          "149628",
          "486165",
          "13583",
          "5068",
          "8515",
          "918323",
          "362041",
          "556282",
          "22969",
          "5981",
          "16988",
          "299712",
          "73962",
          "225750",
          "255324",
          "100980",
          "154344",
          "50931",
          "7057",
          "43874",
          "18262"
        ],
        "layerId": 0,
        "featureIdx": 1
      },
      "mesh": 1
    },
    {
      "matrix": [
        1,
        0,
        0,
        0,
        0,
        2.220446049250313e-16,
        -1,
        0,
        0,
        1,
        2.220446049250313e-16,
        0,
        0,
        0,
        0,
        1
      ],
      "name": "Cuadrícula",
      "extras": {
        "layerId": 0
      },
      "children": [
        0,
        1
      ]
    },
    {
      "extras": {
        "layerId": 1
      },
      "mesh": 2
    },
    {
      "matrix": [
        1,
        0,
        0,
        0,
        0,
        2.220446049250313e-16,
        -1,
        0,
        0,
        1,
        2.220446049250313e-16,
        0,
        0,
        0,
        0,
        1
      ],
      "name": "GSI Elevation Tile",
      "extras": {
        "layerId": 1
      },
      "children": [
        3
      ]
    }
  ],
  "bufferViews": [
    {
      "buffer": 0,
      "byteOffset": 0,
      "byteLength": 720,
      "target": 34962,
      "byteStride": 12
    },
    {
      "buffer": 0,
      "byteOffset": 720,
      "byteLength": 480,
      "target": 34962,
      "byteStride": 8
    },
    {
      "buffer": 0,
      "byteOffset": 1200,
      "byteLength": 720,
      "target": 34962,
      "byteStride": 12
    },
    {
      "buffer": 0,
      "byteOffset": 1920,
      "byteLength": 720,
      "target": 34962,
      "byteStride": 12
    },
    {
      "buffer": 0,
      "byteOffset": 2640,
      "byteLength": 480,
      "target": 34962,
      "byteStride": 8
    },
    {
      "buffer": 0,
      "byteOffset": 3120,
      "byteLength": 720,
      "target": 34962,
      "byteStride": 12
    },
    {
      "buffer": 0,
      "byteOffset": 3840,
      "byteLength": 484812,
      "target": 34962,
      "byteStride": 12
    },
    {
      "buffer": 0,
      "byteOffset": 488652,
      "byteLength": 484812,
      "target": 34962,
      "byteStride": 12
    },
    {
      "buffer": 0,
      "byteOffset": 973464,
      "byteLength": 323208,
      "target": 34962,
      "byteStride": 8
    },
    {
      "buffer": 0,
      "byteOffset": 1296672,
      "byteLength": 480000,
      "target": 34963
    }
  ],
  "buffers": [
    {
      "byteLength": 1776672,
      "uri": "data:application/octet-stream;base64,"
    }
  ],
  "accessors": [
    {
      "bufferView": 0,
      "componentType": 5126,
      "count": 60,
      "max": [
        -0.007667708210647106,
        -0.04190012812614441,
        0.0008515000226907432
      ],
      "min": [
        -0.03076171875,
        -0.06190012767910957,
        0
      ],
      "type": "VEC3"
    },
    {
      "bufferView": 1,
      "componentType": 5126,
      "count": 60,
      "max": [
        -0.007667708210647106,
        1
      ],
      "min": [
        -0.06190012767910957,
        -0.06190012767910957
      ],
      "type": "VEC2"
    },
    {
      "bufferView": 2,
      "componentType": 5126,
      "count": 60,
      "max": [
        0.8660253882408142,
        1,
        1
      ],
      "min": [
        -0.866025447845459,
        -1,
        -1
      ],
      "type": "VEC3"
    },
    {
      "bufferView": 3,
      "componentType": 5126,
      "count": 60,
      "max": [
        0.009652799926698208,
        -0.031900130212306976,
        0.0005068000173196197
      ],
      "min": [
        -0.01344121154397726,
        -0.05190012976527214,
        0
      ],
      "type": "VEC3"
    },
    {
      "bufferView": 4,
      "componentType": 5126,
      "count": 60,
      "max": [
        0.009652799926698208,
        1
      ],
      "min": [
        -0.04190012812614441,
        -0.05190012976527214
      ],
      "type": "VEC2"
    },
    {
      "bufferView": 5,
      "componentType": 5126,
      "count": 60,
      "max": [
        0.866025447845459,
        1,
        1
      ],
      "min": [
        -0.8660253882408142,
        -1,
        -1
      ],
      "type": "VEC3"
    },
    {
      "bufferView": 6,
      "componentType": 5126,
      "count": 40401,
      "max": [
        0.09228515625,
        0.09228515625,
        0
      ],
      "min": [
        -0.09228515625,
        -0.09228515625,
        0
      ],
      "type": "VEC3"
    },
    {
      "bufferView": 7,
      "componentType": 5126,
      "count": 40401,
      "max": [
        0,
        0,
        1
      ],
      "min": [
        0,
        0,
        1
      ],
      "type": "VEC3"
    },
    {
      "bufferView": 8,
      "componentType": 5126,
      "count": 40401,
      "max": [
        1,
        1
      ],
      "min": [
        0,
        0
      ],
      "type": "VEC2"
    },
    {
      "bufferView": 9,
      "componentType": 5123,
      "count": 240000,
      "max": [
        40400
      ],
      "min": [
        0
      ],
      "type": "SCALAR"
    }
  ],
  "materials": [
    {
      "pbrMetallicRoughness": {
        "baseColorFactor": [
          0.12156862745098039,
          0.4666666666666667,
          0.7058823529411765,
          1
        ],
        "metallicFactor": 0.5,
        "roughnessFactor": 0.5
      }
    },
    {
      "pbrMetallicRoughness": {
        "baseColorFactor": [
          0.9725490196078431,
          0.47058823529411764,
          0.1843137254901961,
          1
        ],
        "metallicFactor": 0.5,
        "roughnessFactor": 0.5
      }
    },
    {
      "pbrMetallicRoughness": {
        "metallicFactor": 0.5,
        "roughnessFactor": 0.5,
        "baseColorTexture": {
          "index": 0
        }
      },
      "doubleSided": true
    }
  ],
  "meshes": [
    {
      "primitives": [
        {
          "mode": 4,
          "attributes": {
            "POSITION": 0,
            "TEXCOORD_0": 1,
            "NORMAL": 2
          },
          "material": 0
        }
      ]
    },
    {
      "primitives": [
        {
          "mode": 4,
          "attributes": {
            "POSITION": 3,
            "TEXCOORD_0": 4,
            "NORMAL": 5
          },
          "material": 1
        }
      ]
    },
    {
      "primitives": [
        {
          "mode": 4,
          "attributes": {
            "POSITION": 6,
            "NORMAL": 7,
            "TEXCOORD_0": 8
          },
          "indices": 9,
          "material": 2
        }
      ]
    }
  ],
  "textures": [
    {
      "sampler": 0,
      "source": 0
    }
  ],
  "samplers": [
    {
      "magFilter": 9729,
      "minFilter": 9987,
      "wrapS": 33071,
      "wrapT": 33071
    }
  ],
  "images": [
    {
      "mimeType": "image/png",
      "uri": "data:image/png;base64,"
    }
  ]
}