{
  "asset": {
    "version": "2.0",
    "generator": "THREE.GLTFExporter"
  },
  "scenes": [
    {
      "nodes": [
        2,
        4
      ]
    }
  ],
  "scene": 0,
  "nodes": [
    {
      "extras": {
        "layerId": 0,
        "featureIdx": 0
      },
      "mesh": 0
    },
    {
      "extras": {
        "layerId": 0,
        "featureIdx": 1
      },
      "mesh": 1
    },
    {
      "matrix": [
        1,
        0,
        0,
        0,
        0,
        2.220446049250313e-16,
        -1,
        0,
        0,
        1,
        2.220446049250313e-16,
        0,
        0,
        0,
        0,
        1
      ],
      "name": "primaria",
      "extras": {
        "layerId": 0
      },
      "children": [
        0,
        1
      ]
    },
    {
      "extras": {
        "layerId": 1
      },
      "mesh": 2
    },
    {
      "matrix": [
        1,
        0,
        0,
        0,
        0,
        2.220446049250313e-16,
        -1,
        0,
        0,
        1,
        2.220446049250313e-16,
        0,
        0,
        0,
        0,
        1
      ],
      "name": "GSI Elevation Tile",
      "extras": {
        "layerId": 1
      },
      "children": [
        3
      ]
    }
  ],
  "bufferViews": [
    {
      "buffer": 0,
      "byteOffset": 0,
      "byteLength": 720,
      "target": 34962,
      "byteStride": 12
    },
    {
      "buffer": 0,
      "byteOffset": 720,
      "byteLength": 480,
      "target": 34962,
      "byteStride": 8
    },
    {
      "buffer": 0,
      "byteOffset": 1200,
      "byteLength": 720,
      "target": 34962,
      "byteStride": 12
    },
    {
      "buffer": 0,
      "byteOffset": 1920,
      "byteLength": 720,
      "target": 34962,
      "byteStride": 12
    },
    {
      "buffer": 0,
      "byteOffset": 2640,
      "byteLength": 480,
      "target": 34962,
      "byteStride": 8
    },
    {
      "buffer": 0,
      "byteOffset": 3120,
      "byteLength": 720,
      "target": 34962,
      "byteStride": 12
    },
    {
      "buffer": 0,
      "byteOffset": 3840,
      "byteLength": 483120,
      "target": 34962,
      "byteStride": 12
    },
    {
      "buffer": 0,
      "byteOffset": 486960,
      "byteLength": 483120,
      "target": 34962,
      "byteStride": 12
    },
    {
      "buffer": 0,
      "byteOffset": 970080,
      "byteLength": 322080,
      "target": 34962,
      "byteStride": 8
    },
    {
      "buffer": 0,
      "byteOffset": 1292160,
      "byteLength": 478296,
      "target": 34963
    }
  ],
  "buffers": [
    {
      "byteLength": 1770456,
      "uri": "data:application/octet-stream;base64,"
    }
  ],
  "accessors": [
    {
      "bufferView": 0,
      "componentType": 5126,
      "count": 60,
      "max": [
        413.3866882324219,
        408.5086975097656,
        1496.280029296875
      ],
      "min": [
        -1777.6142578125,
        -1816.80078125,
        0
      ],
      "type": "VEC3"
    },
    {
      "bufferView": 1,
      "componentType": 5126,
      "count": 60,
      "max": [
        413.3866882324219,
        408.5086975097656
      ],
      "min": [
        -1816.80078125,
        -1816.80078125
      ],
      "type": "VEC2"
    },
    {
      "bufferView": 2,
      "componentType": 5126,
      "count": 60,
      "max": [
        0.8996067643165588,
        0.999975860118866,
        1
      ],
      "min": [
        -0.899656355381012,
        -0.999975860118866,
        -1
      ],
      "type": "VEC3"
    },
    {
      "bufferView": 3,
      "componentType": 5126,
      "count": 60,
      "max": [
        2049.2216796875,
        1528.552734375,
        4861.64990234375
      ],
      "min": [
        -142.00973510742188,
        -696.5743408203125,
        0
      ],
      "type": "VEC3"
    },
    {
      "bufferView": 4,
      "componentType": 5126,
      "count": 60,
      "max": [
        2049.2216796875,
        1528.552734375
      ],
      "min": [
        -696.5743408203125,
        -4860.64990234375
      ],
      "type": "VEC2"
    },
    {
      "bufferView": 5,
      "componentType": 5126,
      "count": 60,
      "max": [
        0.899517834186554,
        0.9999769926071167,
        1
      ],
      "min": [
        -0.8995674252510071,
        -0.9999769330024719,
        -1
      ],
      "type": "VEC3"
    },
    {
      "bufferView": 6,
      "componentType": 5126,
      "count": 40260,
      "max": [
        6577.26318359375,
        5466.0654296875,
        0
      ],
      "min": [
        -6577.26318359375,
        -5466.0654296875,
        0
      ],
      "type": "VEC3"
    },
    {
      "bufferView": 7,
      "componentType": 5126,
      "count": 40260,
      "max": [
        0,
        0,
        1
      ],
      "min": [
        0,
        0,
        1
      ],
      "type": "VEC3"
    },
    {
      "bufferView": 8,
      "componentType": 5126,
      "count": 40260,
      "max": [
        1,
        1
      ],
      "min": [
        0,
        0
      ],
      "type": "VEC2"
    },
    {
      "bufferView": 9,
      "componentType": 5123,
      "count": 239148,
      "max": [
        40259
      ],
      "min": [
        0
      ],
      "type": "SCALAR"
    }
  ],
  "materials": [
    {
      "pbrMetallicRoughness": {
        "baseColorFactor": [
          0.9725490196078431,
          0.47058823529411764,
          0.1843137254901961,
          0.5
        ],
        "metallicFactor": 0.5,
        "roughnessFactor": 0.5
      },
      "alphaMode": "BLEND"
    },
    {
      "pbrMetallicRoughness": {
        "baseColorFactor": [
          0.12156862745098039,
          0.4666666666666667,
          0.7058823529411765,
          0.5
        ],
        "metallicFactor": 0.5,
        "roughnessFactor": 0.5
      },
      "alphaMode": "BLEND"
    },
    {
      "pbrMetallicRoughness": {
        "metallicFactor": 0.5,
        "roughnessFactor": 0.5,
        "baseColorTexture": {
          "index": 0
        }
      },
      "doubleSided": true
    }
  ],
  "meshes": [
    {
      "primitives": [
        {
          "mode": 4,
          "attributes": {
            "POSITION": 0,
            "TEXCOORD_0": 1,
            "NORMAL": 2
          },
          "material": 0
        }
      ]
    },
    {
      "primitives": [
        {
          "mode": 4,
          "attributes": {
            "POSITION": 3,
            "TEXCOORD_0": 4,
            "NORMAL": 5
          },
          "material": 1
        }
      ]
    },
    {
      "primitives": [
        {
          "mode": 4,
          "attributes": {
            "POSITION": 6,
            "NORMAL": 7,
            "TEXCOORD_0": 8
          },
          "indices": 9,
          "material": 2
        }
      ]
    }
  ],
  "textures": [
    {
      "sampler": 0,
      "source": 0
    }
  ],
  "samplers": [
    {
      "magFilter": 9729,
      "minFilter": 9987,
      "wrapS": 33071,
      "wrapT": 33071
    }
  ],
  "images": [
    {
      "mimeType": "image/png",
      "uri": "data:image/png;base64,"
    }
  ]
}